<?xml version="1.0" encoding="UTF-8"?>
<svg width="62px" height="64px" viewBox="0 0 62 64" version="1.1" xmlns="http://www.w3.org/2000/svg" xmlns:xlink="http://www.w3.org/1999/xlink">
    <title>Group 82</title>
    <defs>
        <polygon id="path-1" points="0 64 61.49 64 61.49 0 0 0"></polygon>
    </defs>
    <g id="Page-1" stroke="none" stroke-width="1" fill="none" fill-rule="evenodd">
        <g id="Home-Page" transform="translate(-98, -71)">
            <g id="Group-82" transform="translate(98, 71)">
                <path d="M32.76,56.59 L31.5,58.13 C32,58.54 32.51,58.92 33.04,59.26 L34.12,57.59 C33.66,57.29 33.2,56.95 32.76,56.59" id="Fill-1" fill="#FFFFFF"></path>
                <path d="M31.93,60.94 C32.45,61.28 32.99,61.59 33.53,61.88 L34.45,60.11 C33.96,59.86 33.49,59.57 33.02,59.26 L31.92,60.94 L31.93,60.94 Z" id="Fill-3" fill="#FFFFFF"></path>
                <path d="M35.38,58.34 L34.46,60.11 C34.94,60.36 35.43,60.59 35.92,60.79 L36.67,58.95 C36.23,58.77 35.8,58.57 35.38,58.35 L35.38,58.34 Z" id="Fill-5" fill="#FFFFFF"></path>
                <path d="M35.18,62.62 C35.48,62.74 35.77,62.85 36.05,62.95 C36.33,63.04 36.62,63.14 36.94,63.23 L37.5,61.33 C36.97,61.17 36.45,60.99 35.93,60.78 L35.18,62.62 Z" id="Fill-7" fill="#FFFFFF"></path>
                <path d="M38.07,59.43 L37.5,61.34 C38.02,61.5 38.54,61.62 39.07,61.73 L39.46,59.77 C38.99,59.68 38.53,59.56 38.07,59.43" id="Fill-9" fill="#FFFFFF"></path>
                <path d="M38.69,63.66 C39.01,63.72 39.31,63.77 39.61,63.82 C39.91,63.87 40.21,63.89 40.53,63.92 L40.72,61.97 C40.17,61.92 39.62,61.83 39.07,61.73 L38.69,63.66 Z" id="Fill-11" fill="#FFFFFF"></path>
                <path d="M40.92,59.98 L40.73,61.97 C41.27,62.02 41.81,62.05 42.35,62.05 L42.35,60.05 C41.88,60.05 41.4,60.03 40.93,59.98 L40.92,59.98 Z" id="Fill-13" fill="#FFFFFF"></path>
                <path d="M42.34,64 C42.96,64 43.58,63.96 44.2,63.9 L44.02,61.97 C43.47,62.02 42.91,62.05 42.35,62.05 L42.35,64 L42.34,64 Z" id="Fill-15" fill="#FFFFFF"></path>
                <path d="M43.82,59.98 L44.01,61.97 C44.65,61.91 45.28,61.81 45.91,61.68 L45.5,59.72 C44.95,59.84 44.38,59.93 43.82,59.98" id="Fill-17" fill="#FFFFFF"></path>
                <path d="M46.31,63.57 C46.92,63.44 47.52,63.28 48.11,63.09 L47.53,61.24 C47,61.41 46.45,61.55 45.91,61.67 L46.31,63.57 Z" id="Fill-19" fill="#FFFFFF"></path>
                <path d="M46.93,59.34 L47.53,61.25 C48.04,61.09 48.55,60.9 49.05,60.69 L48.27,58.84 C47.83,59.03 47.38,59.2 46.93,59.34" id="Fill-21" fill="#FFFFFF"></path>
                <path d="M49.81,62.46 C50.11,62.33 50.39,62.21 50.66,62.08 C50.93,61.95 51.2,61.8 51.49,61.65 L50.57,59.95 C50.08,60.22 49.57,60.46 49.06,60.68 L49.81,62.46 Z" id="Fill-23" fill="#FFFFFF"></path>
                <path d="M49.6,58.19 L50.56,59.95 C51.03,59.69 51.5,59.41 51.95,59.1 L50.83,57.43 C50.43,57.7 50.02,57.95 49.61,58.18 L49.6,58.19 Z" id="Fill-25" fill="#FFFFFF"></path>
                <path d="M53.03,60.71 C53.3,60.53 53.55,60.35 53.79,60.17 C54.03,59.99 54.27,59.8 54.52,59.59 L53.29,58.1 C52.85,58.46 52.41,58.79 51.95,59.11 L53.03,60.71 Z" id="Fill-27" fill="#FFFFFF"></path>
                <path d="M52.01,56.55 L53.29,58.1 C53.7,57.76 54.11,57.39 54.49,57.01 L53.07,55.59 C52.73,55.93 52.37,56.25 52.01,56.55" id="Fill-29" fill="#FFFFFF"></path>
                <path d="M54.49,57.01 L55.86,58.38 C56.3,57.94 56.71,57.48 57.11,57 L55.62,55.78 C55.27,56.2 54.9,56.61 54.51,57 L54.49,57.02 L54.49,57.01 Z" id="Fill-31" fill="#FFFFFF"></path>
                <path d="M54.07,54.49 L55.63,55.77 C56.04,55.27 56.42,54.75 56.77,54.22 L55.07,53.12 C54.76,53.59 54.43,54.05 54.06,54.49 L54.07,54.49 Z" id="Fill-33" fill="#FFFFFF"></path>
                <path d="M58.38,55.27 C58.72,54.74 59.04,54.21 59.32,53.66 L57.61,52.78 C57.35,53.27 57.07,53.76 56.76,54.23 L58.37,55.28 L58.38,55.27 Z" id="Fill-35" fill="#FFFFFF"></path>
                <path d="M55.82,51.84 L57.61,52.77 C57.86,52.29 58.09,51.79 58.29,51.3 L56.41,50.54 C56.23,50.98 56.03,51.41 55.81,51.84 L55.82,51.84 Z" id="Fill-37" fill="#FFFFFF"></path>
                <path d="M60.08,52.01 C60.2,51.71 60.31,51.42 60.41,51.14 C60.51,50.86 60.6,50.57 60.69,50.25 L58.84,49.71 C58.68,50.24 58.5,50.77 58.29,51.29 L60.07,52.01 L60.08,52.01 Z" id="Fill-39" fill="#FFFFFF"></path>
                <path d="M56.91,49.14 L58.86,49.71 C59.02,49.19 59.14,48.66 59.25,48.13 L57.26,47.75 C57.17,48.22 57.05,48.68 56.92,49.14 L56.91,49.14 Z" id="Fill-41" fill="#FFFFFF"></path>
                <path d="M59.24,48.14 L61.13,48.51 C61.19,48.19 61.24,47.89 61.29,47.59 C61.33,47.29 61.37,46.99 61.4,46.67 L59.48,46.49 C59.43,47.04 59.35,47.6 59.24,48.15 L59.24,48.14 Z" id="Fill-43" fill="#FFFFFF"></path>
                <path d="M57.46,46.29 L59.48,46.48 C59.53,45.94 59.56,45.4 59.56,44.86 L57.53,44.86 C57.53,45.34 57.51,45.82 57.46,46.29 Z" id="Fill-45" fill="#FFFFFF"></path>
                <path d="M61.49,44.85 C61.49,44.23 61.46,43.61 61.4,42.99 L59.47,43.18 C59.52,43.73 59.55,44.29 59.55,44.85 L61.48,44.85 L61.49,44.85 Z" id="Fill-47" fill="#FFFFFF"></path>
                <path d="M57.45,43.38 L59.47,43.18 C59.41,42.54 59.31,41.91 59.18,41.28 L57.19,41.71 C57.31,42.26 57.4,42.82 57.45,43.38" id="Fill-49" fill="#FFFFFF"></path>
                <path d="M61.08,40.88 C60.95,40.27 60.8,39.67 60.61,39.08 L58.75,39.67 C58.92,40.2 59.06,40.74 59.18,41.29 L61.08,40.88 Z" id="Fill-51" fill="#FFFFFF"></path>
                <path d="M56.81,40.29 L58.75,39.67 C58.59,39.16 58.4,38.65 58.19,38.15 L56.31,38.95 C56.5,39.39 56.66,39.84 56.81,40.29" id="Fill-53" fill="#FFFFFF"></path>
                <path d="M59.99,37.39 C59.86,37.09 59.74,36.81 59.61,36.54 C59.48,36.27 59.34,36 59.18,35.71 L57.46,36.65 C57.73,37.14 57.97,37.64 58.19,38.15 L59.98,37.39 L59.99,37.39 Z" id="Fill-55" fill="#FFFFFF"></path>
                <path d="M55.67,37.63 L57.46,36.65 C57.2,36.18 56.92,35.72 56.61,35.27 L54.92,36.41 C55.19,36.8 55.44,37.21 55.66,37.62 L55.67,37.63 Z" id="Fill-57" fill="#FFFFFF"></path>
                <path d="M58.25,34.17 C58.07,33.9 57.89,33.65 57.72,33.41 C57.54,33.17 57.35,32.93 57.14,32.68 L55.62,33.94 C55.98,34.37 56.31,34.82 56.62,35.27 C56.62,35.27 58.25,34.17 58.25,34.17" id="Fill-59" fill="#FFFFFF"></path>
                <path d="M13.01,59.69 C7.98,59.69 4.09,55.65 4.09,50.72 C4.09,45.79 7.98,41.7 13.01,41.7 C18.04,41.7 22.03,45.69 22.03,50.72 C22.03,55.75 18.04,59.69 13.01,59.69 L13.01,59.69 Z M31.73,55.54 C31.73,55.54 31.72,55.53 31.71,55.52 C25.7,49.51 25.74,40.02 31.64,34.12 C37.51,28.25 47.03,28.18 53.04,34.19 L53.06,34.21 L55.92,31.35 L55.9,31.33 C48.39,23.82 36.37,23.89 28.89,31.37 C25.69,34.57 23.85,38.58 23.36,42.72 C21.16,39.92 17.84,38.07 14.05,38.07 C12.49,38.07 11.15,38.43 9.9,39.16 L9.69,39.06 L17.93,26.26 L13.11,26.26 L2.13,43.57 C0.78,45.64 0,48.03 0,50.67 C0,57.72 5.86,63.58 13.06,63.58 C18.96,63.58 24.02,59.55 25.61,54.16 C26.46,55.68 27.52,57.12 28.82,58.42 C28.82,58.42 28.83,58.43 28.84,58.44 C29.28,58.88 29.74,59.29 30.22,59.69 L31.5,58.13 C31.08,57.78 30.67,57.41 30.27,57.01 L31.73,55.55 L31.73,55.54 Z" id="Fill-61" fill="#FFFFFF"></path>
                <path d="M55.61,33.94 C55.27,33.53 54.91,33.13 54.52,32.75 L53.05,34.22 C53.39,34.56 53.71,34.91 54.01,35.27 L55.6,33.95 L55.61,33.94 Z" id="Fill-63" fill="#FFFFFF"></path>
                <path d="M5.56,5.97 L3.72,5.97 L3.72,9.57 L1.85,9.57 L1.85,0 L5.56,0 C7.54,0 8.72,1.36 8.72,2.98 C8.72,4.6 7.54,5.96 5.56,5.96 M5.47,1.67 L3.72,1.67 L3.72,4.29 L5.47,4.29 C6.32,4.29 6.85,3.77 6.85,2.99 C6.85,2.21 6.31,1.67 5.47,1.67" id="Fill-65" fill="#FFFFFF"></path>
                <path d="M14.32,8.79 C13.89,9.25 13.18,9.65 12.14,9.65 C11.1,9.65 10.41,9.25 9.98,8.79 C9.35,8.13 9.19,7.34 9.19,6.06 C9.19,4.78 9.35,4 9.98,3.35 C10.41,2.89 11.11,2.49 12.14,2.49 C13.17,2.49 13.89,2.89 14.32,3.35 C14.95,4.01 15.11,4.8 15.11,6.06 C15.11,7.32 14.95,8.13 14.32,8.79 M12.97,4.37 C12.77,4.17 12.5,4.06 12.15,4.06 C11.8,4.06 11.55,4.17 11.34,4.37 C10.98,4.73 10.94,5.34 10.94,6.06 C10.94,6.78 10.98,7.4 11.34,7.77 C11.54,7.97 11.8,8.08 12.15,8.08 C12.5,8.08 12.77,7.97 12.97,7.77 C13.33,7.41 13.37,6.79 13.37,6.06 C13.37,5.33 13.33,4.73 12.97,4.37" id="Fill-67" fill="#FFFFFF"></path>
                <path d="M17.95,9.57 C16.51,9.57 15.91,8.56 15.91,7.57 L15.91,0 L17.66,0 L17.66,7.46 C17.66,7.88 17.83,8.09 18.28,8.09 L18.95,8.09 L18.95,9.57 L17.95,9.57 Z" id="Fill-69" fill="#FFFFFF"></path>
                <mask id="mask-2" fill="white">
                    <use xlink:href="#path-1"></use>
                </mask>
                <g id="Clip-72"></g>
                <polygon id="Fill-71" fill="#FFFFFF" mask="url(#mask-2)" points="19.81 9.58 21.56 9.58 21.56 2.57 19.81 2.57"></polygon>
                <path d="M25.75,9.65 C24.35,9.65 22.62,8.9 22.62,6.06 C22.62,3.22 24.35,2.48 25.75,2.48 C26.72,2.48 27.44,2.78 28.06,3.42 L26.88,4.6 C26.52,4.21 26.21,4.05 25.75,4.05 C25.33,4.05 25.01,4.2 24.76,4.51 C24.49,4.85 24.37,5.32 24.37,6.06 C24.37,6.8 24.49,7.28 24.76,7.62 C25.02,7.93 25.34,8.08 25.75,8.08 C26.21,8.08 26.52,7.92 26.88,7.53 L28.06,8.7 C27.44,9.35 26.72,9.65 25.75,9.65" id="Fill-73" fill="#FFFFFF" mask="url(#mask-2)"></path>
                <path d="M30.28,6.62 C30.28,7.52 30.83,8.18 31.81,8.18 C32.58,8.18 32.95,7.96 33.4,7.52 L34.46,8.55 C33.75,9.26 33.06,9.65 31.8,9.65 C30.15,9.65 28.56,8.9 28.56,6.06 C28.56,3.78 29.8,2.48 31.61,2.48 C33.56,2.48 34.66,3.9 34.66,5.83 L34.66,6.61 L30.28,6.61 L30.28,6.62 Z M32.78,4.66 C32.59,4.24 32.2,3.93 31.61,3.93 C31.02,3.93 30.63,4.24 30.44,4.66 C30.33,4.92 30.29,5.1 30.28,5.41 L32.94,5.41 C32.93,5.1 32.89,4.91 32.78,4.66 L32.78,4.66 Z" id="Fill-74" fill="#FFFFFF" mask="url(#mask-2)"></path>
                <path d="M5.48,20.45 L1.85,20.45 L1.85,10.88 L5.37,10.88 C6.96,10.88 8.14,11.81 8.14,13.38 C8.14,14.39 7.58,15.22 6.65,15.53 C7.68,15.89 8.29,16.73 8.29,17.84 C8.29,19.55 7.16,20.45 5.48,20.45 M5.29,11.52 L2.58,11.52 L2.58,15.23 L5.3,15.23 C6.46,15.23 7.42,14.69 7.42,13.38 C7.42,12.07 6.45,11.53 5.3,11.53 M5.4,15.87 L2.58,15.87 L2.58,19.8 L5.4,19.8 C6.7,19.8 7.56,19.07 7.56,17.84 C7.56,16.61 6.7,15.88 5.4,15.88" id="Fill-75" fill="#FFFFFF" mask="url(#mask-2)"></path>
                <path d="M13.7,19.8 C13.15,20.35 12.64,20.53 11.72,20.53 C10.75,20.53 10.23,20.37 9.81,19.94 C9.5,19.63 9.34,19.16 9.34,18.68 C9.34,17.5 10.19,16.81 11.6,16.81 L13.7,16.81 L13.7,16.08 C13.7,15.05 13.2,14.49 11.87,14.49 C10.96,14.49 10.5,14.72 10.08,15.31 L9.58,14.88 C10.13,14.11 10.8,13.89 11.86,13.89 C13.58,13.89 14.37,14.66 14.37,16.01 L14.37,20.45 L13.68,20.45 L13.68,19.8 L13.7,19.8 Z M11.68,17.35 C10.58,17.35 10.03,17.78 10.03,18.65 C10.03,19.52 10.54,19.91 11.72,19.91 C12.31,19.91 12.86,19.86 13.33,19.41 C13.57,19.18 13.69,18.76 13.69,18.17 L13.69,17.34 L11.67,17.34 L11.68,17.35 Z" id="Fill-76" fill="#FFFFFF" mask="url(#mask-2)"></path>
                <path d="M19.89,16.42 C19.89,15.17 19.27,14.48 18.1,14.48 C16.93,14.48 16.27,15.18 16.27,16.42 L16.27,20.44 L15.58,20.44 L15.58,13.96 L16.27,13.96 L16.27,14.73 C16.75,14.17 17.39,13.88 18.18,13.88 C18.89,13.88 19.47,14.08 19.9,14.5 C20.34,14.93 20.57,15.53 20.57,16.3 L20.57,20.44 L19.88,20.44 L19.88,16.42 L19.89,16.42 Z" id="Fill-77" fill="#FFFFFF" mask="url(#mask-2)"></path>
                <polygon id="Fill-78" fill="#FFFFFF" mask="url(#mask-2)" points="23.93 16.88 22.45 18.59 22.45 20.45 21.76 20.45 21.76 10.87 22.45 10.87 22.45 17.62 25.66 13.96 26.54 13.96 24.4 16.38 27.01 20.45 26.16 20.45"></polygon>
                <polygon id="Fill-79" fill="#FFFFFF" mask="url(#mask-2)" points="47.61 10.24 57.81 10.24 57.81 0.04 47.61 0.04"></polygon>
                <polygon id="Fill-80" fill="#FFFFFF" mask="url(#mask-2)" points="37.4 20.45 47.6 20.45 47.6 10.25 37.4 10.25"></polygon>
                <polygon id="Fill-81" fill="#FFFFFF" mask="url(#mask-2)" points="19.81 1.74 21.55 1.74 21.55 0 19.81 0"></polygon>
            </g>
        </g>
    </g>
</svg>