<svg width="1054" height="490" viewBox="0 0 1054 490" fill="none" xmlns="http://www.w3.org/2000/svg">
<g opacity="0.55" filter="url(#filter0_f_6505_6672)">
<path d="M662.056 -135.542L526.501 -247.409L390.995 -135.542L498.167 124.17L512.799 114.277L514.316 142.97C514.316 142.97 532.129 149.86 542.503 154.142L662.007 -135.542H662.056Z" fill="#4079B1"/>
<path d="M509.569 265.123L390.995 552.543L526.501 664.41L662.056 552.543L559.093 302.969L509.569 265.123Z" fill="#C3E5EB"/>
<path d="M864.216 61.6158L847.088 -113.888L672.58 -131.162L569.421 119.789L604.068 169.792L864.216 61.6158Z" fill="#4095DA"/>
<path d="M392.365 270.734L188.788 355.385L205.965 530.889L380.474 548.163L496.307 266.403L400.782 299.082L392.365 270.734Z" fill="#8BD9D6"/>
<path d="M73.2 208.526L184.433 344.805L388.989 259.464L373.77 208.231L425.937 172.992L184.433 72.1985L73.2 208.526Z" fill="#40A9AF"/>
<path d="M610.918 179.735L642.923 225.899L635.583 247.554L868.62 344.805L979.853 208.526V208.477L868.62 72.1985L610.918 179.735Z" fill="#40BAE8"/>
<path d="M488.232 130.912L380.474 -131.162L205.965 -113.888L188.788 61.6157L437.632 165.067L488.232 130.912Z" fill="#408D9F"/>
<path d="M618.209 326.101L608.177 353.908L591.636 328.463L605.387 332.991L618.16 326.101H618.209ZM864.214 355.384L631.764 258.725L617.034 302.182L575.878 313.01L672.578 548.162L847.086 530.888L864.263 355.384H864.214Z" fill="#82D8EE"/>
<path d="M662.058 -135.542L526.502 -247.409V147.793C531.837 149.91 537.905 152.272 542.505 154.191L662.009 -135.493L662.058 -135.542Z" fill="#004C97"/>
<path d="M509.569 265.123L390.995 552.543L526.501 664.41V278.116L509.569 265.123Z" fill="#9BD3DD"/>
<path d="M864.215 61.6152L847.087 -113.888L588.015 146.66L604.067 169.791L864.215 61.6152Z" fill="#0072CE"/>
<path d="M392.365 270.734L188.788 355.385L205.965 530.889L454.809 280.578L400.782 299.083L392.365 270.734Z" fill="#64CCC9"/>
<path d="M73.2 208.526H373.868L373.77 208.231L425.937 172.992L184.433 72.1985L73.2 208.526Z" fill="#008C95"/>
<path d="M642.922 225.897L635.582 247.552L868.619 344.803L979.853 208.524V208.475H630.884L642.922 225.897Z" fill="#00A3E0"/>
<path d="M488.234 130.912L380.475 -131.162L205.967 -113.888L464.989 146.611L488.234 130.912Z" fill="#00677F"/>
<path d="M618.16 326.102L608.128 353.909L591.587 328.464L605.338 332.992L618.111 326.102H618.16ZM847.086 530.889L617.719 300.214L617.034 302.183L575.878 313.01L672.578 548.163L847.086 530.889Z" fill="#59CBE8"/>
</g>
<defs>
<filter id="filter0_f_6505_6672" x="0" y="-320.609" width="1053.05" height="1058.22" filterUnits="userSpaceOnUse" color-interpolation-filters="sRGB">
<feFlood flood-opacity="0" result="BackgroundImageFix"/>
<feBlend mode="normal" in="SourceGraphic" in2="BackgroundImageFix" result="shape"/>
<feGaussianBlur stdDeviation="36.6" result="effect1_foregroundBlur_6505_6672"/>
</filter>
</defs>
</svg>
