<svg width="209" height="98" viewBox="0 0 209 98" fill="none" xmlns="http://www.w3.org/2000/svg">
<g clip-path="url(#clip0_6505_6697)">
<path d="M63.3715 12.0232L48.7833 0L34.2005 12.0232L45.7341 39.9363L47.3087 38.8731L47.472 41.9569C47.472 41.9569 49.389 42.6975 50.5055 43.1577L63.3662 12.0232H63.3715Z" fill="#4079B1"/>
<path d="M46.9611 55.0854L34.2005 85.9766L48.7833 97.9998L63.3715 85.9766L52.2908 59.1531L46.9611 55.0854Z" fill="#C3E5EB"/>
<path d="M85.1273 33.2134L83.284 14.3508L64.5038 12.4941L53.402 39.4657L57.1307 44.8399L85.1273 33.2134Z" fill="#4095DA"/>
<path d="M34.3479 55.6886L12.4394 64.7867L14.2879 83.6493L33.0682 85.506L45.5339 55.2231L35.2538 58.7354L34.3479 55.6886Z" fill="#8BD9D6"/>
<path d="M0 49.0027L11.9707 63.6496L33.9846 54.4774L32.3467 48.971L37.9607 45.1836L11.9707 34.3506L0 49.0027Z" fill="#40A9AF"/>
<path d="M57.868 45.9083L61.3123 50.8699L60.5223 53.1973L85.6013 63.6496L97.572 49.0027V48.9974L85.6013 34.3506L57.868 45.9083Z" fill="#40BAE8"/>
<path d="M44.665 40.6611L33.0682 12.4941L14.2879 14.3508L12.4394 33.2134L39.2194 44.3321L44.665 40.6611Z" fill="#408D9F"/>
<path d="M58.6527 61.6394L57.5731 64.628L55.793 61.8933L57.2729 62.3799L58.6474 61.6394H58.6527ZM85.1273 64.7867L60.1115 54.3979L58.5263 59.0686L54.0972 60.2324L64.5038 85.506L83.284 83.6493L85.1325 64.7867H85.1273Z" fill="#82D8EE"/>
<path d="M63.3715 12.0232L48.7833 0V42.4753C49.3574 42.7028 50.0104 42.9567 50.5055 43.1629L63.3662 12.0285L63.3715 12.0232Z" fill="#004C97"/>
<path d="M46.9611 55.0854L34.2005 85.9766L48.7833 97.9998V56.4819L46.9611 55.0854Z" fill="#9BD3DD"/>
<path d="M85.1273 33.2132L83.284 14.3506L55.4033 42.3536L57.1307 44.8397L85.1273 33.2132Z" fill="#0072CE"/>
<path d="M34.3479 55.6885L12.4394 64.7866L14.2879 83.6492L41.068 56.7464L35.2538 58.7353L34.3479 55.6885Z" fill="#64CCC9"/>
<path d="M0 49.0027H32.3572L32.3467 48.971L37.9607 45.1836L11.9707 34.3506L0 49.0027Z" fill="#008C95"/>
<path d="M61.3123 50.8701L60.5223 53.1975L85.6013 63.6497L97.572 49.0028V48.9976H60.0167L61.3123 50.8701Z" fill="#00A3E0"/>
<path d="M44.665 40.6611L33.0682 12.4941L14.2879 14.3508L42.1634 42.3485L44.665 40.6611Z" fill="#00677F"/>
<path d="M58.6474 61.6393L57.5678 64.6279L55.7878 61.8932L57.2676 62.3798L58.6422 61.6393H58.6474ZM83.284 83.6492L58.6 58.8569L58.5263 59.0685L54.0972 60.2322L64.5038 85.5058L83.284 83.6492Z" fill="#59CBE8"/>
<path d="M194.454 30.209C195.239 27.1569 195.534 24.7977 195.776 23.0786H195.823C196.018 24.7977 196.313 27.1622 197.045 30.209L198.367 35.964H193.027L194.449 30.209H194.454ZM182.504 48.458H189.999L191.663 41.5234H199.647L201.216 48.458H209.005L199.799 14.2715H192.21L182.515 48.458H182.504ZM168.938 29.9657V20.4709H172.366C175.058 20.4709 176.432 21.4071 176.432 25.3426C176.432 28.9818 175.01 29.9657 172.071 29.9657H168.938ZM161.596 48.458H168.943V35.9164H172.177C181.63 35.9164 183.979 31.5896 183.979 24.7977C183.979 16.7787 179.618 14.2715 171.587 14.2715H161.596V48.458ZM139.361 48.458H146.708V33.7001H154.987V27.6488H146.708V20.5185H157.236V14.2715H139.361V48.458ZM121.287 30.209C122.072 27.1569 122.367 24.7977 122.609 23.0786H122.656C122.851 24.7977 123.146 27.1622 123.878 30.209L125.2 35.964H119.86L121.282 30.209H121.287ZM109.337 48.458H116.831L118.496 41.5234H126.48L128.049 48.458H135.838L126.632 14.2715H119.043L109.348 48.458H109.337Z" fill="white"/>
<path d="M202.47 83.5863H203.307V78.4449C203.907 77.9106 204.566 77.4769 205.24 77.4769C205.914 77.4769 206.246 77.7837 206.246 78.6829V83.5863H207.083V78.4554C207.083 77.2864 206.383 76.731 205.429 76.731C204.602 76.731 203.902 77.1912 203.249 77.8418L203.054 76.8739H202.47V83.5916V83.5863ZM197.951 83.0521C196.787 83.0521 196.16 82.3327 196.16 80.2116C196.16 78.0905 196.777 77.3975 197.94 77.3975C199.104 77.3975 199.731 78.1275 199.731 80.2539C199.731 82.3803 199.115 83.0521 197.956 83.0521M197.951 83.7291C199.52 83.7291 200.605 82.7188 200.605 80.2327C200.605 77.7466 199.457 76.731 197.919 76.731C196.382 76.731 195.276 77.7413 195.276 80.2433C195.276 82.7453 196.392 83.7291 197.946 83.7291M192.869 75.324C193.243 75.324 193.511 75.0437 193.511 74.6787C193.511 74.3137 193.248 74.0175 192.869 74.0175C192.49 74.0175 192.237 74.2978 192.237 74.6787C192.237 75.0595 192.5 75.324 192.869 75.324ZM192.537 83.5863H193.374V76.8686H191.584V77.4028L192.537 77.5298V83.5863ZM188.129 77.5562V82.4596C188.129 83.3747 188.719 83.7239 189.472 83.7239C189.92 83.7239 190.225 83.5969 190.509 83.4594L190.299 82.8405C190.114 82.9251 189.867 83.0362 189.514 83.0362C189.135 83.0362 188.956 82.8246 188.956 82.4173V77.5562H190.357V76.8686H188.956V74.9008L188.134 75.0966V76.8686H187.323V77.5562H188.134H188.129ZM184.911 82.1C184.564 82.5337 183.99 83.0256 183.189 83.0256C182.388 83.0256 182.009 82.6448 182.009 81.7191C182.009 80.6347 182.457 80.1851 184.137 80.1851H184.906V82.1H184.911ZM184.911 79.5398H184.058C181.999 79.5398 181.135 80.2433 181.135 81.7032C181.135 83.0098 181.862 83.7239 183.094 83.7239C183.963 83.7239 184.59 83.2055 184.953 82.7717L185.164 83.5863H185.749V78.667C185.749 77.3288 185.106 76.7257 183.874 76.7257C182.836 76.7257 182.125 77.0749 181.467 77.5086L181.804 78.1275C182.42 77.7361 183.063 77.4504 183.805 77.4504C184.7 77.4504 184.911 77.9265 184.911 78.7728V79.5292V79.5398ZM178.739 75.324C179.118 75.324 179.381 75.0437 179.381 74.6787C179.381 74.3137 179.118 74.0175 178.739 74.0175C178.36 74.0175 178.107 74.2978 178.107 74.6787C178.107 75.0595 178.37 75.324 178.739 75.324ZM178.402 83.5863H179.239V76.8686H177.449V77.4028L178.402 77.5298V83.5863ZM174.383 83.7291C175.321 83.7291 175.937 83.3642 176.385 82.8617L175.837 82.3433C175.516 82.6818 175.137 83.0203 174.426 83.0203C173.235 83.0203 172.651 82.375 172.651 80.2222C172.651 78.0693 173.251 77.4557 174.357 77.4557C175.015 77.4557 175.363 77.6832 175.758 78.101L176.264 77.5245C175.758 77.022 175.21 76.7416 174.389 76.7416C172.861 76.7416 171.771 77.7096 171.771 80.2539C171.771 82.7982 172.851 83.7397 174.389 83.7397M167.685 83.0521C166.521 83.0521 165.894 82.3327 165.894 80.2116C165.894 78.0905 166.51 77.3975 167.669 77.3975C168.827 77.3975 169.459 78.1275 169.459 80.2539C169.459 82.3803 168.843 83.0521 167.679 83.0521M167.685 83.7291C169.254 83.7291 170.344 82.7188 170.344 80.2327C170.344 77.7466 169.196 76.731 167.658 76.731C166.12 76.731 165.014 77.7413 165.014 80.2433C165.014 82.7453 166.131 83.7291 167.685 83.7291ZM161.386 83.7291C162.787 83.7291 163.608 83.1103 163.608 81.8037C163.608 80.4126 162.745 80.0317 161.623 79.6668C160.685 79.36 160.348 79.159 160.348 78.429C160.348 77.7519 160.78 77.4451 161.539 77.4451C162.155 77.4451 162.55 77.5879 163.034 77.8524L163.34 77.1912C162.881 76.9267 162.334 76.731 161.523 76.731C160.196 76.731 159.553 77.5033 159.553 78.4449C159.553 79.6509 160.29 80.1164 161.286 80.4285C162.434 80.7934 162.797 81.0315 162.797 81.8461C162.797 82.576 162.392 83.0256 161.396 83.0256C160.67 83.0256 160.111 82.7717 159.595 82.3909L159.232 82.9939C159.722 83.3853 160.491 83.7239 161.386 83.7239M155.872 83.7291C157.273 83.7291 158.094 83.1103 158.094 81.8037C158.094 80.4126 157.231 80.0317 156.109 79.6668C155.171 79.36 154.834 79.159 154.834 78.429C154.834 77.7519 155.266 77.4451 156.025 77.4451C156.641 77.4451 157.036 77.5879 157.52 77.8524L157.826 77.1912C157.367 76.9267 156.82 76.731 156.009 76.731C154.682 76.731 154.039 77.5033 154.039 78.4449C154.039 79.6509 154.776 80.1164 155.772 80.4285C156.92 80.7934 157.283 81.0315 157.283 81.8461C157.283 82.576 156.878 83.0256 155.882 83.0256C155.156 83.0256 154.597 82.7717 154.081 82.3909L153.718 82.9939C154.208 83.3853 154.977 83.7239 155.872 83.7239M151.006 79.7249H148.262L149.099 76.9849C149.405 75.9588 149.547 75.3399 149.647 74.795H149.673C149.757 75.3293 149.884 75.9323 150.189 76.9849L151 79.7249H151.006ZM148.025 80.4813H151.227L152.138 83.5863H153.091L150.152 73.9329H149.189L146.181 83.5863H147.077L148.03 80.4813H148.025ZM138.092 79.6932C138.192 77.9371 138.808 77.4134 139.746 77.4134C140.783 77.4134 141.289 77.9741 141.289 79.6932H138.097H138.092ZM138.076 80.3544H142.147V80.0053C142.147 77.7149 141.31 76.731 139.756 76.731C138.203 76.731 137.197 77.6832 137.197 80.2433C137.197 82.8035 138.313 83.7291 139.909 83.7291C140.836 83.7291 141.463 83.4647 142.037 82.9992L141.573 82.4067C141.141 82.7453 140.678 83.0098 139.909 83.0098C138.65 83.0098 138.103 82.3909 138.076 80.3544ZM134.09 83.7291C135.027 83.7291 135.643 83.3642 136.091 82.8617L135.543 82.3433C135.222 82.6818 134.843 83.0203 134.132 83.0203C132.942 83.0203 132.357 82.375 132.357 80.2222C132.357 78.0693 132.957 77.4557 134.063 77.4557C134.722 77.4557 135.069 77.6832 135.464 78.101L135.97 77.5245C135.464 77.022 134.922 76.7416 134.095 76.7416C132.568 76.7416 131.477 77.7096 131.477 80.2539C131.477 82.7982 132.552 83.7397 134.095 83.7397M129.065 75.324C129.445 75.324 129.708 75.0437 129.708 74.6787C129.708 74.3137 129.445 74.0175 129.065 74.0175C128.686 74.0175 128.439 74.2978 128.439 74.6787C128.439 75.0595 128.702 75.324 129.065 75.324ZM128.728 83.5863H129.566V76.8686H127.775V77.4028L128.728 77.5298V83.5863ZM126.169 83.6974C126.406 83.6974 126.643 83.6392 126.827 83.5705L126.685 82.9675C126.685 82.9675 126.574 83.0098 126.39 83.0098C126.085 83.0098 125.916 82.8828 125.916 82.4596V73.5361H125.079V82.375C125.079 83.3589 125.511 83.6974 126.169 83.6974ZM120.544 83.0521C119.38 83.0521 118.754 82.3327 118.754 80.2116C118.754 78.0905 119.37 77.3975 120.529 77.3975C121.687 77.3975 122.319 78.1275 122.319 80.2539C122.319 82.3803 121.703 83.0521 120.544 83.0521ZM120.544 83.7291C122.114 83.7291 123.199 82.7188 123.199 80.2327C123.199 77.7466 122.051 76.731 120.513 76.731C118.975 76.731 117.869 77.7413 117.869 80.2433C117.869 82.7453 118.985 83.7291 120.539 83.7291M112.318 78.868V74.6946H113.787C115.204 74.6946 115.778 75.287 115.778 76.7628C115.778 78.2386 115.162 78.8733 113.903 78.8733H112.323L112.318 78.868ZM111.439 83.5863H112.318V79.6086H113.998C115.778 79.6086 116.71 78.5983 116.71 76.7152C116.71 74.9326 115.773 73.9329 113.84 73.9329H111.433V83.5863H111.439Z" fill="white"/>
<path d="M207.099 67.8869C207.336 67.8869 207.573 67.8287 207.757 67.7599L207.615 67.1569C207.615 67.1569 207.504 67.1992 207.32 67.1992C207.015 67.1992 206.846 67.0723 206.846 66.6491V57.7256H206.009V66.5645C206.009 67.5483 206.44 67.8869 207.099 67.8869ZM202.917 66.2894C202.57 66.7232 201.996 67.2151 201.195 67.2151C200.395 67.2151 200.021 66.8342 200.021 65.9086C200.021 64.8242 200.468 64.3746 202.148 64.3746H202.917V66.2894ZM202.917 63.7293H202.064C200.005 63.7293 199.141 64.4328 199.141 65.8927C199.141 67.1992 199.868 67.9133 201.1 67.9133C201.969 67.9133 202.601 67.3949 202.965 66.9612L203.175 67.7758H203.76V62.8565C203.76 61.5182 203.117 60.9152 201.885 60.9152C200.847 60.9152 200.137 61.2643 199.478 61.6981L199.81 62.3169C200.426 61.9255 201.069 61.6399 201.811 61.6399C202.707 61.6399 202.917 62.1159 202.917 62.9623V63.7187V63.7293ZM195.097 67.7758H195.934V62.8406C196.534 62.1953 197.056 61.8409 197.74 61.8409C197.867 61.8409 197.977 61.8567 198.035 61.8832L198.119 60.984C198.119 60.984 197.977 60.9575 197.909 60.9575C197.114 60.9575 196.439 61.5023 195.881 62.19L195.686 61.0527H195.102V67.7705L195.097 67.7758ZM189.188 63.8827C189.288 62.1265 189.904 61.6028 190.841 61.6028C191.879 61.6028 192.379 62.1635 192.379 63.8827H189.188ZM189.177 64.5439H193.248V64.1947C193.248 61.9044 192.411 60.9205 190.857 60.9205C189.303 60.9205 188.297 61.8726 188.297 64.4328C188.297 66.9929 189.414 67.9186 191.01 67.9186C191.931 67.9186 192.563 67.6541 193.137 67.1886L192.679 66.5962C192.247 66.9347 191.784 67.1992 191.015 67.1992C189.756 67.1992 189.209 66.5803 189.182 64.5439M183.789 67.1886C182.778 67.1886 182.262 66.5962 182.262 64.3481C182.262 62.2693 182.81 61.6505 183.858 61.6505C184.542 61.6505 185.117 62.0154 185.606 62.5232V66.2894C185.101 66.7549 184.543 67.1886 183.789 67.1886ZM183.663 67.9186C184.458 67.9186 185.148 67.469 185.648 66.9242L185.843 67.7811H186.428V57.7362H185.606V61.8515C185.174 61.4018 184.542 60.9258 183.705 60.9258C182.194 60.9258 181.398 62.0049 181.398 64.4275C181.398 66.9982 182.32 67.9239 183.663 67.9239M175.869 63.8827C175.969 62.1265 176.585 61.6028 177.522 61.6028C178.56 61.6028 179.06 62.1635 179.06 63.8827H175.869ZM175.853 64.5439H179.924V64.1947C179.924 61.9044 179.086 60.9205 177.533 60.9205C175.979 60.9205 174.973 61.8726 174.973 64.4328C174.973 66.9929 176.09 67.9186 177.686 67.9186C178.607 67.9186 179.239 67.6541 179.813 67.1886L179.355 66.5962C178.923 66.9347 178.46 67.1992 177.691 67.1992C176.432 67.1992 175.884 66.5803 175.858 64.5439M169.433 67.7758H170.312V63.0681H173.446V62.3275H170.312V58.884H174.104V58.1276H169.433V67.7811V67.7758ZM159.458 67.7758H160.296V62.6343C160.896 62.1001 161.554 61.6663 162.228 61.6663C162.903 61.6663 163.234 61.9731 163.234 62.8723V67.7758H164.072V62.6449C164.072 61.4759 163.371 60.9205 162.418 60.9205C161.591 60.9205 160.891 61.3807 160.238 62.0313L160.043 61.0633H159.453V67.7811L159.458 67.7758ZM156.377 66.2894C156.03 66.7232 155.456 67.2151 154.655 67.2151C153.855 67.2151 153.476 66.8342 153.476 65.9086C153.476 64.8242 153.923 64.3746 155.603 64.3746H156.372V66.2894H156.377ZM156.377 63.7293H155.524C153.465 63.7293 152.601 64.4328 152.601 65.8927C152.601 67.1992 153.328 67.9133 154.56 67.9133C155.429 67.9133 156.056 67.3949 156.42 66.9612L156.63 67.7758H157.215V62.8565C157.215 61.5182 156.572 60.9152 155.34 60.9152C154.302 60.9152 153.591 61.2643 152.933 61.6981L153.27 62.3169C153.886 61.9255 154.529 61.6399 155.271 61.6399C156.167 61.6399 156.377 62.1159 156.377 62.9623V63.7187V63.7293ZM150.21 59.5135C150.584 59.5135 150.853 59.2331 150.853 58.8681C150.853 58.5032 150.59 58.2069 150.21 58.2069C149.831 58.2069 149.578 58.4873 149.578 58.8681C149.578 59.249 149.842 59.5135 150.21 59.5135ZM149.873 67.7758H150.711V61.058H148.92V61.5923L149.873 61.7192V67.7758ZM147.309 67.8869C147.546 67.8869 147.783 67.8287 147.967 67.7599L147.825 67.1569C147.825 67.1569 147.714 67.1992 147.53 67.1992C147.224 67.1992 147.056 67.0723 147.056 66.6491V57.7256H146.218V66.5645C146.218 67.5483 146.65 67.8869 147.309 67.8869ZM143.127 66.2894C142.779 66.7232 142.205 67.2151 141.405 67.2151C140.604 67.2151 140.225 66.8342 140.225 65.9086C140.225 64.8242 140.673 64.3746 142.353 64.3746H143.122V66.2894H143.127ZM143.127 63.7293H142.274C140.215 63.7293 139.351 64.4328 139.351 65.8927C139.351 67.1992 140.078 67.9133 141.31 67.9133C142.179 67.9133 142.806 67.3949 143.169 66.9612L143.38 67.7758H143.964V62.8565C143.964 61.5182 143.322 60.9152 142.089 60.9152C141.052 60.9152 140.341 61.2643 139.683 61.6981L140.02 62.3169C140.636 61.9255 141.278 61.6399 142.021 61.6399C142.916 61.6399 143.127 62.1159 143.127 62.9623V63.7187V63.7293ZM135.306 67.7758H136.144V62.8406C136.744 62.1953 137.265 61.8409 137.95 61.8409C138.076 61.8409 138.187 61.8567 138.245 61.8832L138.329 60.984C138.329 60.984 138.187 60.9575 138.119 60.9575C137.323 60.9575 136.649 61.5023 136.091 62.19L135.896 61.0527H135.306V67.7705V67.7758ZM131.304 61.7457V66.6491C131.304 67.5642 131.894 67.9133 132.647 67.9133C133.094 67.9133 133.4 67.7864 133.684 67.6488L133.473 67.03C133.289 67.1146 133.042 67.2257 132.689 67.2257C132.31 67.2257 132.131 67.0141 132.131 66.6068V61.7457H133.531V61.058H132.131V59.0903L131.309 59.286V61.058H130.498V61.7457H131.309H131.304ZM127.106 67.9186C128.507 67.9186 129.329 67.2997 129.329 65.9932C129.329 64.602 128.465 64.2212 127.343 63.8562C126.406 63.5494 126.069 63.3484 126.069 62.6184C126.069 61.9414 126.506 61.6346 127.259 61.6346C127.875 61.6346 128.265 61.7774 128.755 62.0419L129.06 61.3807C128.597 61.1162 128.054 60.9205 127.243 60.9205C125.916 60.9205 125.268 61.6928 125.268 62.6343C125.268 63.8403 126.011 64.3058 127.001 64.6179C128.149 64.9829 128.512 65.2209 128.512 66.0355C128.512 66.7655 128.107 67.2151 127.112 67.2151C126.385 67.2151 125.827 66.9612 125.305 66.5803L124.942 67.1834C125.432 67.5748 126.2 67.9133 127.096 67.9133M120.418 67.9186C121.245 67.9186 121.929 67.4849 122.561 66.8818L122.756 67.7811H123.357V61.0633H122.519V66.2788C121.903 66.7866 121.261 67.1781 120.586 67.1781C119.912 67.1781 119.549 66.8395 119.549 65.9297V61.0686H118.727V66.1572C118.727 67.3526 119.454 67.9239 120.418 67.9239M115.299 63.9144H112.555L113.392 61.1744C113.698 60.1482 113.84 59.5293 113.94 58.9845H113.966C114.051 59.5188 114.177 60.1218 114.483 61.1744L115.294 63.9144H115.299ZM112.318 64.6708H115.52L116.431 67.7758H117.384L114.446 58.1223H113.482L110.475 67.7758H111.37L112.323 64.6708H112.318Z" fill="white"/>
</g>
<defs>
<clipPath id="clip0_6505_6697">
<rect width="209" height="98" fill="white"/>
</clipPath>
</defs>
</svg>
